<?xml version="1.0" encoding="utf-8"?>
<svg version="1.0" xmlns="http://www.w3.org/2000/svg" width="300.000000pt" height="300.000000pt" viewBox="0 0 300.000000 300.000000" preserveAspectRatio="xMidYMid meet" xmlns:bx="https://boxy-svg.com"><defs><bx:export><bx:file format="svg" units="pt"/></bx:export></defs><g transform="translate(0.000000,300.000000) scale(0.100000,-0.100000)" fill="#000000" stroke="none"><path d="M1701 2585 l-292 -295 -422 0 -422 0 -230 -230 -230 -230 498 0 498 0 293 290 293 290 364 0 364 0 211 213 c115 116 218 222 229 235 l18 22 -440 0 -440 0 -292 -295z" style="fill: rgb(0, 47, 101);"/><path d="M1701 2015 l-292 -295 -422 0 -422 0 -230 -230 -230 -230 498 0 498 0 293 290 293 290 364 0 364 0 211 213 c115 116 218 222 229 235 l18 22 -440 0 -440 0 -292 -295z" style="fill: rgb(0, 47, 101);"/><path d="M1701 1445 l-292 -295 -422 0 -422 0 -230 -230 -230 -230 498 0 498 0 293 290 293 290 364 0 364 0 211 213 c115 116 218 222 229 235 l18 22 -440 0 -440 0 -292 -295z" style="fill: rgb(0, 47, 101);"/><path d="M1701 875 l-292 -295 -422 0 -422 0 -230 -230 -230 -230 498 0 498 0 293 290 293 290 364 0 364 0 211 213 c115 116 218 222 229 235 l18 22 -440 0 -440 0 -292 -295z" style="fill: rgb(0, 47, 101);"/></g></svg>